<?xml version="1.0" encoding="iso-8859-1"?>
<!-- Generator: Adobe Illustrator 16.0.0, SVG Export Plug-In . SVG Version: 6.00 Build 0)  -->
<!DOCTYPE svg PUBLIC "-//W3C//DTD SVG 1.1//EN" "http://www.w3.org/Graphics/SVG/1.1/DTD/svg11.dtd">
<svg version="1.1" id="Capa_1" xmlns="http://www.w3.org/2000/svg" xmlns:xlink="http://www.w3.org/1999/xlink" x="0px" y="0px"
	 width="41.563px" height="41.564px" viewBox="0 0 41.563 41.564" style="enable-background:new 0 0 41.563 41.564;"
	 xml:space="preserve">
<g>
	<g>
		<path d="M38.452,33.551c-0.859-1.354-3.217-2.425-3.24-4.001c-0.016-1.204-0.033-2.407-0.049-3.61
			c-0.055-4.015-0.109-8.028-0.164-12.042c-0.039-2.828-0.764-6.47,2.207-8.061c2.283-1.223,1.078-5.021-1.111-5.654
			c-3.178-0.921-17.287,1.682-11.053,6.529c0.635,0.495,3.004,0.808,2.975,1.933c-0.047,1.824-0.412,3.652-0.48,5.486
			c-0.055,1.502,0.34,3.013,0.361,4.513c0.016,1.108-6.245,1.521-6.985,1.642c-1.806,0.293-3.598,0.678-5.406,0.956
			c-1.418,0.219-0.826-5.76-0.806-6.305c0.098-2.736,0.469-5.072,2.963-6.77c0.512-0.349,0.801-1.224,0.737-1.817
			C17.79,0.674,11.047,2.672,7.153,3.494C5.699,3.801,3.756,4.416,3.083,5.907c-1.285,2.844,2.137,3.72,3.561,5.451
			c0.351,0.427,0.509,1.312,0.534,1.864c0.252,5.717,0.504,11.434,0.756,17.15c0.043,0.983,0.086,1.967,0.13,2.951
			c0.098,2.218-2.201,2.07-2.82,3.497c-1.299,2.993,0.995,4.286,3.753,4.649c2.968,0.393,7.169-0.449,9.344-2.586
			c2.268-2.227-3.243-5.441-3.322-7.077c-0.162-3.357,2.4-4.682,5.439-5.43c1.025-0.252,7.247-1.623,7.247,1.333
			c0,0.821,0,1.644,0,2.463c0,3.621-4.855,2.603-2.643,6.942C27.306,41.52,40.991,37.552,38.452,33.551z M27.937,6.145
			c-0.43-0.155-0.855-0.722-0.869-1.273c-0.002-0.121-0.002-0.239,0.002-0.354c0.021-0.553,0.445-1.32,0.812-1.732
			c0.014-0.015,0.027-0.028,0.039-0.043c0.369-0.412,0.922-0.854,1.256-0.917c0.332-0.064,0.949-0.232,1.395-0.363
			s0.504,0.144,0.111,0.53c-0.338,0.333-0.676,0.666-1.016,1.002C29.274,3.383,29.276,3.385,29.671,3
			c0.348-0.336,0.697-0.676,1.047-1.018c0.396-0.387,1.17-0.771,1.715-0.67c1.188,0.224,2.109,1.159,2.76,2.825
			c0.201,0.516-0.09,1.151-0.498,1.523c-0.154,0.141-0.299,0.293-0.432,0.456c-0.352,0.427-0.664,0.772-0.807,0.711
			s-0.588,0.2-0.99,0.579c-0.75,0.705-1.598,1.5-2.541,2.383c-0.016,0.015-0.027,0.027-0.041,0.04
			c-0.021,0.021-0.012-0.266,0.023-0.641c0.02-0.225,0.043-0.448,0.068-0.678c0.014-0.108,0.021-0.212,0.023-0.308
			c0.006-0.171,0.324-0.612,0.732-0.984c0.256-0.233,0.512-0.469,0.768-0.701c0.051-0.053,0.102-0.104,0.154-0.154
			c0.084-0.085,0.076-0.188-0.021-0.229c-0.096-0.042-0.484,0.242-0.873,0.637c-0.037,0.038-0.074,0.076-0.111,0.114
			c-0.389,0.395-0.771,0.419-1.014,0.164c-0.24-0.254-0.217-0.679,0.137-1.039s0.574-0.716,0.506-0.801
			c-0.07-0.085-0.443,0.151-0.84,0.533c-0.006,0.005-0.012,0.01-0.016,0.015C29.024,6.142,28.364,6.299,27.937,6.145z
			 M32.024,15.657c-0.482,0.472-0.963,0.94-1.441,1.409c-0.395,0.386-0.721,0.602-0.73,0.484c-0.008-0.068-0.014-0.141-0.021-0.213
			c-0.068-0.586-0.113-1.16-0.141-1.729c-0.027-0.551,0.293-1.305,0.695-1.681c0.52-0.482,1.039-0.967,1.559-1.449
			c0.406-0.376,0.717-0.232,0.721,0.318c0.002,0.387,0.01,0.773,0.025,1.16C32.712,14.512,32.419,15.272,32.024,15.657z
			 M32.034,15.748c-0.061,0.061-0.121,0.118-0.182,0.178c-0.395,0.388-0.396,0.388-0.002-0.001c0.061-0.059,0.121-0.118,0.182-0.178
			C32.425,15.359,32.427,15.361,32.034,15.748z M32.089,10.593c-0.568,0.529-1.141,1.06-1.711,1.588
			c-0.404,0.375-0.721,0.239-0.691-0.303c0.029-0.541,0.395-1.281,0.801-1.653c0.633-0.582,1.391-1.278,2.246-2.066
			c0.406-0.375,0.555-0.266,0.4,0.266c-0.047,0.165-0.09,0.334-0.131,0.506C32.88,9.467,32.495,10.217,32.089,10.593z
			 M33.206,26.313c0.008,0.553-0.295,1.324-0.674,1.727c-0.732,0.772-1.455,1.534-2.166,2.282c-0.379,0.399-0.658,0.301-0.672-0.222
			c-0.01-0.354-0.029-0.685-0.029-0.945c0-0.043-0.002-0.085-0.002-0.126c-0.002-0.069,0.303-0.454,0.68-0.857
			c0.725-0.773,1.445-1.547,2.164-2.315c0.377-0.403,0.689-0.285,0.697,0.268C33.204,26.186,33.204,26.249,33.206,26.313z
			 M5.902,6.454c-0.141-0.604-0.013-1.078,0.587-1.3c0.46-0.17,1.11-0.377,1.857-0.571c0.535-0.14,0.655,0.084,0.263,0.474
			C8.063,5.6,7.519,6.14,6.974,6.68C6.583,7.069,6.029,6.991,5.902,6.454z M7.232,8.957C7.008,8.633,7.155,8.053,7.55,7.667
			c0.288-0.28,0.577-0.562,0.868-0.846C8.814,6.437,9.213,5.654,9.58,5.24c0.127-0.144,0.281-0.277,0.46-0.4
			c0.455-0.312,0.966-0.536,1.065-0.633s0.625-0.226,1.177-0.237c2.009-0.044,3.786,0.476,4.12,2.288
			c0.146,0.794-3.045,3.44-3.425,4.681c-0.091,0.296-0.163,0.605-0.221,0.929c-0.093,0.519-0.447,1.26-0.84,1.646
			c-0.642,0.633-1.286,1.268-1.933,1.905c-0.393,0.388-0.732,0.255-0.757-0.297c-0.014-0.327-0.029-0.653-0.043-0.979
			c-0.024-0.553,0.278-1.31,0.677-1.691c0.841-0.808,1.682-1.617,2.523-2.438c0.068-0.068,0.136-0.137,0.204-0.204
			c0.113-0.112,0.043-0.229-0.153-0.27c-0.196-0.039-0.669,0.239-1.058,0.632c-0.521,0.526-1.042,1.055-1.563,1.58
			c-0.388,0.394-0.71,0.589-0.716,0.438c-0.004-0.093-0.008-0.184-0.012-0.274c-0.011-0.086,0.003-0.136-0.015-0.191
			c-0.081-0.263-0.344-0.671-0.688-1.157C8.063,10.116,8,9.805,8.251,9.854C8.502,9.901,8.71,9.951,8.712,9.987
			c0.001,0.037,0.317-0.252,0.705-0.646c0.009-0.01,0.019-0.018,0.028-0.027c0.388-0.395,0.518-0.849,0.331-1.056
			C9.588,8.051,9.147,8.168,8.75,8.552C8.634,8.664,8.517,8.779,8.396,8.896C8,9.28,7.986,9.265,8.376,8.874
			C8.495,8.756,8.612,8.639,8.73,8.521c0.393-0.389,0.384-0.396-0.016-0.017C8.596,8.617,8.479,8.73,8.36,8.844
			C7.964,9.227,7.457,9.281,7.232,8.957z M9.457,35.177C9.584,35,9.688,34.834,9.757,34.684c0.15-0.333,0.248-0.706,0.308-1.104
			c0.083-0.546,0.413-1.297,0.821-1.669c0.44-0.4,0.878-0.802,1.317-1.202c0.408-0.373,0.675-0.252,0.676,0.274
			c0,0.525-0.267,1.255-0.672,1.63c-0.554,0.515-1.108,1.028-1.664,1.542c-0.405,0.375-0.728,0.809-0.721,0.971
			c0.007,0.162-0.156,0.333-0.359,0.394C9.259,35.578,9.269,35.438,9.457,35.177z M9.402,19.106
			c-0.021-0.475,0.274-1.179,0.659-1.573c0.61-0.627,1.206-1.239,1.79-1.84c0.386-0.396,0.701-0.327,0.714,0.15
			c0.013,0.479-0.285,1.188-0.669,1.584c-0.587,0.605-1.174,1.21-1.761,1.815C9.751,19.642,9.423,19.579,9.402,19.106z
			 M9.625,24.147c-0.006-0.142-0.012-0.281-0.019-0.421c-0.024-0.553,0.163-1.205,0.418-1.459c0.154-0.153,0.309-0.308,0.464-0.461
			c0.117-0.129,0.234-0.258,0.352-0.386c0.194-0.213,0.03-0.074-0.368,0.311c-0.065,0.063-0.131,0.126-0.196,0.188
			c-0.397,0.384-0.732,0.401-0.748,0.039c-0.016-0.362,0.289-0.97,0.683-1.357c0.57-0.562,1.14-1.125,1.71-1.688
			c0.394-0.388,0.716-0.521,0.719-0.297c0.001,0.138,0.002,0.272,0,0.405c-0.008,0.711,0.025,1.304,0.116,1.791
			c0.102,0.543,0.005,1.257-0.386,1.646c-0.673,0.67-1.337,1.331-1.993,1.982C9.986,24.831,9.648,24.698,9.625,24.147z
			 M15.594,35.935c3.447,1.809,0.025,3.024-2.539,3.627c-0.538,0.126-1.259,0.052-1.525-0.232c-0.267-0.284-0.721-0.279-1.125,0.094
			c-0.404,0.373-1.18,0.711-1.732,0.705c-0.912-0.009-1.487-0.133-1.812-0.343c-0.464-0.299,0.012-1.188,0.402-1.578
			c1.663-1.666,3.343-3.369,5.036-5.086c0.388-0.394,0.778-0.269,0.956,0.254c0.237,0.697,0.58,1.322,1.02,1.802
			C14.575,35.503,15.34,35.8,15.594,35.935z M25.052,24.384c-2.688-0.054-7.698,0.43-10.266,2.343
			c-0.443,0.328-1.074,0.968-1.483,1.339c-0.826,0.75-1.65,1.516-2.475,2.284c-0.404,0.377-0.768,0.233-0.828-0.314
			c-0.087-0.797-0.184-1.556-0.212-2.189c-0.009-0.204-0.018-0.41-0.027-0.616c-0.015-0.342,0.284-0.939,0.668-1.337
			c0.892-0.922,1.782-1.84,2.671-2.751c0.385-0.396,1.114-0.527,1.666-0.489c0.468,0.031,1.032-0.008,1.71-0.112
			c2.87-0.442,5.715-1.038,8.594-1.433c1.096-0.15,3.066,0.023,3.92-0.893c0.371-0.397,0.607-0.775,0.74-1.189
			c0.17-0.525,0.465-1.295,0.865-1.676c0.488-0.463,0.967-0.919,1.439-1.368c0.4-0.381,0.754-0.242,0.797,0.308
			c0.035,0.459,0.074,0.906,0.109,1.34c0.047,0.551-0.24,1.288-0.639,1.647c-0.396,0.358-0.648,0.644-0.564,0.635
			c0.086-0.009,0.41-0.276,0.725-0.598s0.602-0.177,0.629,0.323c0.02,0.32,0.031,0.624,0.035,0.905
			c0.016,1.146,0.031,2.292,0.047,3.437c0.006,0.553-0.396,0.947-0.9,0.904c-0.506-0.043-1.232,0.262-1.623,0.652
			c-0.18,0.181-0.361,0.361-0.541,0.543c-0.391,0.391-0.807,0.262-1.104-0.205C28.351,24.841,27.132,24.425,25.052,24.384z
			 M26.741,34.732c0.186-0.495,0.629-0.965,1.383-1.314c0.398-0.186,0.885-0.824,1.096-1.046c0.139-0.144,0.236-0.324,0.309-0.528
			c0.113-0.321,0.449-0.92,0.836-1.312c0.723-0.729,1.441-1.453,2.156-2.176c0.389-0.394,0.709-0.38,0.713,0.025
			c0.006,0.407-0.305,1.055-0.693,1.445c-1.779,1.792-3.494,3.521-5.139,5.18C27.013,35.398,26.546,35.25,26.741,34.732z
			 M32.515,36.942c-0.533,0.141-0.932,0.196-0.883,0.147c0.051-0.051,0.025-0.151-0.049-0.231c-0.076-0.08-0.266-0.01-0.432,0.16
			c-0.164,0.169-0.738,0.406-1.291,0.424c-0.459,0.014-0.877-0.033-1.248-0.128c-0.535-0.137-0.611-0.701-0.229-1.1
			c0.469-0.483,0.977-1.011,1.523-1.577c0.385-0.397,0.777-0.924,0.965-1.109s0.695-0.604,1.078-1
			c0.242-0.249,0.488-0.503,0.738-0.761c0.385-0.396,0.729-0.589,0.803-0.442c0.043,0.089,0.098,0.171,0.166,0.242
			c0.852,0.898,0.742,0.826,1.807,1.498C38.524,34.994,34.841,36.328,32.515,36.942z"/>
		<path d="M13.855,25.688c0.061-0.059,0.057-0.062-0.004-0.004C13.791,25.742,13.793,25.744,13.855,25.688z"/>
	</g>
</g>
<g>
</g>
<g>
</g>
<g>
</g>
<g>
</g>
<g>
</g>
<g>
</g>
<g>
</g>
<g>
</g>
<g>
</g>
<g>
</g>
<g>
</g>
<g>
</g>
<g>
</g>
<g>
</g>
<g>
</g>
</svg>
