<svg xmlns="http://www.w3.org/2000/svg" width="129.235" height="145.59" viewBox="0 0 129.235 145.59">
  <g id="Group_23" data-name="Group 23" transform="translate(-329.447 -996.635)">
    <g id="Group_17" data-name="Group 17">
      <g id="Group_15" data-name="Group 15">
        <g id="Group_13" data-name="Group 13">
          <path id="Path_58" data-name="Path 58" d="M381.53,1039.3c14.435-2.891,43.157-7.05,63.666-8.735l.918-.076v-18.549l-1.126.144c-26.844,3.419-74.982,10.532-96.977,19.89a95.29,95.29,0,0,1-16.234-9.025c24.869-15.122,95.007-25.494,126.9-26.316v47.686c-7.8.589-30.6,3.085-38.564,3.981Z" fill="#f6921e"/>
        </g>
        <g id="Group_14" data-name="Group 14">
          <path id="Path_59" data-name="Path 59" d="M457.328,1079.354c-17.65-7.6-38.976-12-59.612-16.251-26.486-5.458-51.515-10.617-66.729-21.894v-16.37c21.066,14.616,51.918,20.7,79.22,26.091,18.063,3.564,35.141,6.933,47.121,12.3Z" fill="#f6921e"/>
        </g>
      </g>
      <g id="Group_16" data-name="Group 16">
        <path id="Path_60" data-name="Path 60" d="M448.267,1087.6c-7.113-3.176-15.083-6.671-26.208-8.839,5.229-1.122,12.717-2.813,16.353-4.031a163.5,163.5,0,0,1,18,6.4A80.045,80.045,0,0,1,448.267,1087.6Z" fill="#f6921e"/>
      </g>
    </g>
    <g id="Group_22" data-name="Group 22">
      <g id="Group_20" data-name="Group 20">
        <g id="Group_18" data-name="Group 18">
          <path id="Path_61" data-name="Path 61" d="M329.447,1094.539c8.755-.661,36.129-3.71,38.563-3.981l38.589,9c-14.411,2.887-43.124,7.046-63.667,8.737l-.918.076v18.549l1.127-.144c26.843-3.419,74.98-10.533,96.975-19.889a95.007,95.007,0,0,1,16.235,9.025c-24.868,15.12-95.006,25.493-126.9,26.316Z" fill="#f6921e"/>
        </g>
        <g id="Group_19" data-name="Group 19">
          <path id="Path_62" data-name="Path 62" d="M457.14,1114.022c-21.066-14.618-51.919-20.706-79.22-26.092-18.065-3.565-35.143-6.935-47.122-12.3-.019-5.524-.034-12.958-.021-16.055,17.625,7.562,38.928,11.944,59.544,16.184,26.533,5.458,51.608,10.615,66.819,21.889Z" fill="#f6921e"/>
        </g>
      </g>
      <g id="Group_21" data-name="Group 21">
        <path id="Path_63" data-name="Path 63" d="M349.758,1064.189a168.823,168.823,0,0,1-18.222-6.467,77.71,77.71,0,0,1,8.317-6.474c7.125,3.181,15.11,6.683,26.252,8.85C360.7,1061.278,353.323,1062.991,349.758,1064.189Z" fill="#f6921e"/>
      </g>
    </g>
  </g>
</svg>